<svg width="46" height="36" viewBox="0 0 46 36" fill="none" xmlns="http://www.w3.org/2000/svg">
<path fill-rule="evenodd" clip-rule="evenodd" d="M10 6C10 2.68629 12.6863 0 16 0C19.3137 0 22 2.68629 22 6C22 9.31371 19.3137 12 16 12C12.6863 12 10 9.31371 10 6ZM16 4C14.8954 4 14 4.89543 14 6C14 7.10457 14.8954 8 16 8C17.1046 8 18 7.10457 18 6C18 4.89543 17.1046 4 16 4Z" fill="#F7A110"/>
<path fill-rule="evenodd" clip-rule="evenodd" d="M24 6C24 2.68629 26.6863 0 30 0C33.3137 0 36 2.68629 36 6C36 9.31371 33.3137 12 30 12C26.6863 12 24 9.31371 24 6ZM30 4C28.8954 4 28 4.89543 28 6C28 7.10457 28.8954 8 30 8C31.1046 8 32 7.10457 32 6C32 4.89543 31.1046 4 30 4Z" fill="#F7A110"/>
<path fill-rule="evenodd" clip-rule="evenodd" d="M0 16C0 12.6863 2.68629 10 6 10C9.31371 10 12 12.6863 12 16C12 19.3137 9.31371 22 6 22C2.68629 22 0 19.3137 0 16ZM6 14C4.89543 14 4 14.8954 4 16C4 17.1046 4.89543 18 6 18C7.10457 18 8 17.1046 8 16C8 14.8954 7.10457 14 6 14Z" fill="#F7A110"/>
<path fill-rule="evenodd" clip-rule="evenodd" d="M22.9999 14C17.8878 14 14.3551 17.8174 12.461 21.6056C11.4898 23.548 10.8588 25.6377 10.6102 27.5554C10.3701 29.4075 10.4518 31.376 11.211 32.8944C11.9087 34.2897 12.9436 35.2588 14.3388 35.6227C15.5959 35.9507 16.8419 35.6966 17.7993 35.423C18.3011 35.2797 18.805 35.1051 19.271 34.9407L19.5131 34.855C19.9034 34.7168 20.2706 34.5867 20.6451 34.4659C21.5506 34.1738 22.3141 34 22.9999 34C23.6856 34 24.4491 34.1738 25.3546 34.4659C25.7291 34.5867 26.0963 34.7168 26.4867 34.855L26.7288 34.9407C27.1948 35.1051 27.6986 35.2797 28.2004 35.423C29.1579 35.6966 30.4039 35.9507 31.661 35.6227C33.0561 35.2588 34.0911 34.2897 34.7887 32.8944C35.5479 31.376 35.6296 29.4075 35.3895 27.5554C35.1409 25.6377 34.5099 23.548 33.5387 21.6056C31.6447 17.8175 28.112 14 22.9999 14ZM14.7887 31.1056C14.5479 30.624 14.3796 29.5925 14.577 28.0696C14.766 26.6123 15.2599 24.952 16.0387 23.3944C17.6447 20.1825 20.112 18 22.9999 18C25.8878 18 28.3551 20.1825 29.961 23.3944C30.7398 24.952 31.2338 26.6123 31.4227 28.0696C31.6201 29.5925 31.4518 30.624 31.211 31.1056C30.9201 31.6873 30.7101 31.738 30.6568 31.7509L30.6513 31.7523C30.4709 31.7993 30.0919 31.8034 29.2993 31.577C28.9261 31.4703 28.5238 31.3324 28.0601 31.1687L27.8371 31.0898C27.4463 30.9513 27.0163 30.799 26.5826 30.6591C25.5506 30.3262 24.3141 30 22.9999 30C21.6856 30 20.4491 30.3262 19.4171 30.6591C18.9835 30.799 18.5534 30.9513 18.1627 31.0898L17.9397 31.1687C17.476 31.3324 17.0736 31.4703 16.7004 31.577C15.9079 31.8034 15.5289 31.7993 15.3485 31.7523L15.3429 31.7509C15.2897 31.738 15.0796 31.6873 14.7887 31.1056Z" fill="#F7A110"/>
<path fill-rule="evenodd" clip-rule="evenodd" d="M40 10C36.6863 10 34 12.6863 34 16C34 19.3137 36.6863 22 40 22C43.3137 22 46 19.3137 46 16C46 12.6863 43.3137 10 40 10ZM38 16C38 14.8954 38.8954 14 40 14C41.1046 14 42 14.8954 42 16C42 17.1046 41.1046 18 40 18C38.8954 18 38 17.1046 38 16Z" fill="#F7A110"/>
</svg>
