<svg width="48.000000" height="48.000000" viewBox="0 0 48 48" fill="none" xmlns="http://www.w3.org/2000/svg" xmlns:xlink="http://www.w3.org/1999/xlink">
	<desc>
			Created with Pixso.
	</desc>
	<defs/>
	<rect id="basket" width="48.000000" height="48.000000" fill="#FFFFFF" fill-opacity="0"/>
	<path id="shape" d="M21.41 7.41L10.82 18L37.17 18L26.58 7.41L29.41 4.58L43.4 18.57C43.45 18.62 43.5 18.67 43.54 18.73C43.92 19.19 44.07 19.8 43.96 20.39L39.96 40.39C39.77 41.32 38.95 42 38 42L9.99 42C9.04 42 8.22 41.32 8.03 40.39L4.03 20.39C3.92 19.8 4.07 19.19 4.45 18.73C4.49 18.67 4.54 18.62 4.59 18.57L18.58 4.58L21.41 7.41ZM8.43 22L11.63 38L36.36 38L39.56 22L8.43 22ZM14 26L14 34L18 34L18 26L14 26ZM22 34L22 26L26 26L26 34L22 34ZM30 26L30 34L34 34L34 26L30 26Z" fill="#F7A110" fill-opacity="1.000000" fill-rule="evenodd"/>
</svg>
