<svg width="48.000000" height="48.000000" viewBox="0 0 48 48" fill="none" xmlns="http://www.w3.org/2000/svg" xmlns:xlink="http://www.w3.org/1999/xlink">
	<desc>
			Created with Pixso.
	</desc>
	<defs/>
	<rect id="beauty" width="48.000000" height="48.000000" fill="#FFFFFF" fill-opacity="0"/>
	<path id="shape" d="M24 4C24.53 4 25.03 4.21 25.41 4.58L28.1 7.27C28.27 7.44 28.43 7.61 28.59 7.78L35.51 6.05C36.52 5.8 37.56 6.37 37.89 7.36L39.44 12L42 12C43.1 12 44 12.89 44 14L44 17.83C44 27.66 36.78 36 27.45 36L25.86 36C25.04 41.65 20.79 44 18 44L18 40C18.75 40 21.09 39.2 21.79 36L20.54 36C11.21 36 4 27.66 4 17.83L4 14C4 12.89 4.89 12 6 12L8.55 12L10.1 7.36C10.43 6.37 11.47 5.8 12.48 6.05L19.4 7.78C19.56 7.61 19.72 7.44 19.89 7.27L22.58 4.58C22.96 4.21 23.46 4 24 4ZM32.12 13.41C31.84 12.68 31.5 11.97 31.12 11.28L34.68 10.38L35.33 12.34C34.22 12.58 33.14 12.94 32.12 13.41ZM15.87 13.41C14.85 12.94 13.77 12.58 12.66 12.34L13.31 10.38L16.87 11.28C16.49 11.97 16.15 12.68 15.87 13.41ZM14.82 17.35C13.18 16.48 11.36 16 9.45 16L8 16L8 17.83C8 25.29 13.01 31.12 19.12 31.9C15.5 27.8 14.07 22.45 14.82 17.35ZM28.87 31.9C32.49 27.8 33.92 22.45 33.17 17.35C34.81 16.48 36.63 16 38.54 16L40 16L40 17.83C40 25.29 34.98 31.12 28.87 31.9ZM24 31.17L22.72 29.89C19.18 26.35 17.93 21.37 18.99 16.82C19.56 14.36 20.8 12.02 22.72 10.1L24 8.82L25.27 10.1C27.19 12.02 28.43 14.36 29 16.82C30.06 21.37 28.81 26.35 25.27 29.89L24 31.17Z" fill="#F7A110" fill-opacity="1.000000" fill-rule="evenodd"/>
</svg>
