<svg width="48" height="40" viewBox="0 0 48 40" fill="none" xmlns="http://www.w3.org/2000/svg">
<path fill-rule="evenodd" clip-rule="evenodd" d="M4 12C4 5.37258 9.37259 0 16 0H32C38.6274 0 44 5.37258 44 12V16L4 16L4 12ZM16 4C11.5817 4 8 7.58172 8 12L40 12C40 7.58172 36.4183 4 32 4L16 4Z" fill="#F7A110"/>
<path fill-rule="evenodd" clip-rule="evenodd" d="M4 28H44V32C44 36.4183 40.4183 40 36 40H12C7.58172 40 4 36.4183 4 32V28ZM8 32C8 34.2091 9.79086 36 12 36H36C38.2091 36 40 34.2091 40 32H8Z" fill="#F7A110"/>
<path d="M22.2112 23.1305C23.3373 22.5674 24.6628 22.5674 25.7889 23.1305L28.4223 24.4472C30.6745 25.5733 33.3255 25.5733 35.5777 24.4472L37.7801 23.346C39.064 22.7041 40.5934 22.7993 41.7878 23.5955L44.8906 25.6641L47.1094 22.3359L44.0066 20.2673C41.6179 18.6749 38.559 18.4844 35.9913 19.7683L33.7889 20.8695C32.6628 21.4325 31.3373 21.4325 30.2112 20.8695L27.5777 19.5528C25.3255 18.4267 22.6745 18.4267 20.4223 19.5528L17.7889 20.8695C16.6628 21.4325 15.3373 21.4325 14.2112 20.8695L12.0088 19.7683C9.44102 18.4844 6.38218 18.6749 3.99348 20.2673L0.890625 22.3359L3.10943 25.6641L6.21228 23.5955C7.40663 22.7993 8.93605 22.7041 10.2199 23.346L12.4223 24.4472C14.6745 25.5733 17.3255 25.5733 19.5777 24.4472L22.2112 23.1305Z" fill="#F7A110"/>
</svg>
