<svg width="40" height="40" viewBox="0 0 40 40" fill="none" xmlns="http://www.w3.org/2000/svg">
<path d="M12 4V0H8V4H12Z" fill="#F7A110"/>
<path fill-rule="evenodd" clip-rule="evenodd" d="M12 14V8H8V14C4.68629 14 2 16.6863 2 20V25.9564C1.99941 25.9845 1.99941 26.0125 2 26.0404V32H6V29C8.49017 28.9999 9.84083 27.8419 10.7749 27.041L10.8012 27.0185C11.6161 26.32 12.0135 26 12.9996 26C13.9858 26 14.3832 26.32 15.1981 27.0185L15.2243 27.041C16.1585 27.8419 17.5092 29 19.9996 29C22.49 29 23.8408 27.8419 24.7749 27.041L24.8012 27.0185C25.6161 26.32 26.0135 26 26.9996 26C27.9858 26 28.3832 26.32 29.1981 27.0185L29.2243 27.041C30.1585 27.8419 31.5092 29 33.9996 29C33.9995 29 33.9998 29 33.9996 29L34 32H38V26.04C38.0006 26.0123 38.0006 25.9846 38 25.9568V20C38 16.6863 35.3137 14 32 14V8H28V14H22V8H18V14H12ZM34 25V20C34 18.8954 33.1046 18 32 18H8C6.89543 18 6 18.8954 6 20V25C6.98589 24.9999 7.38326 24.6799 8.19806 23.9815L8.22434 23.959C9.1585 23.1581 10.5092 22 12.9996 22C15.49 22 16.8408 23.1581 17.7749 23.959L17.8012 23.9815C18.6161 24.68 19.0135 25 19.9996 25C20.9858 25 21.3832 24.68 22.1981 23.9815L22.2243 23.959C23.1585 23.1581 24.5092 22 26.9996 22C29.49 22 30.8408 23.1581 31.7749 23.959L31.8012 23.9815C32.6161 24.68 33.0138 25 34 25C34.0001 25 33.9999 25 34 25Z" fill="#F7A110"/>
<path d="M0 40L40 40V36L0 36V40Z" fill="#F7A110"/>
<path d="M22 0V4H18V0H22Z" fill="#F7A110"/>
<path d="M32 0V4H28V0H32Z" fill="#F7A110"/>
</svg>
