<svg width="16.000000" height="16.000000" viewBox="0 0 16 16" fill="none" xmlns="http://www.w3.org/2000/svg" xmlns:xlink="http://www.w3.org/1999/xlink">
	<desc>
			Created with Pixso.
	</desc>
	<defs>
		<clipPath id="clip34_259">
			<rect id="camera" width="16.000000" height="16.000000" fill="white" fill-opacity="0"/>
		</clipPath>
	</defs>
	<rect id="camera" width="16.000000" height="16.000000" fill="#FFFFFF" fill-opacity="0"/>
	<g clip-path="url(#clip34_259)">
		<path id="Vector" d="M14.94 13.6C14.69 13.85 14.35 14 14 14L2 14C1.64 14 1.3 13.85 1.05 13.6C0.8 13.35 0.66 13.02 0.66 12.66L0.66 5.33C0.66 4.97 0.8 4.64 1.05 4.39C1.3 4.14 1.64 4 2 4L4.66 4L6 2L10 2L11.33 4L14 4C14.35 4 14.69 4.14 14.94 4.39C15.19 4.64 15.33 4.97 15.33 5.33L15.33 12.66C15.33 13.02 15.19 13.35 14.94 13.6Z" stroke="currentColor" stroke-opacity="1.000000" stroke-width="2.000000" stroke-linejoin="round"/>
		<path id="Vector" d="M8 11.33C6.52 11.33 5.33 10.13 5.33 8.66C5.33 7.19 6.52 6 8 6C9.47 6 10.66 7.19 10.66 8.66C10.66 10.13 9.47 11.33 8 11.33Z" stroke="currentColor" stroke-opacity="1.000000" stroke-width="2.000000" stroke-linejoin="round"/>
	</g>
</svg>
