<svg width="24.000000" height="24.000000" viewBox="0 0 24 24" fill="none" xmlns="http://www.w3.org/2000/svg" xmlns:xlink="http://www.w3.org/1999/xlink">
	<desc>
			Created with Pixso.
	</desc>
	<defs>
		<clipPath id="clip194_1404">
			<rect id=" Close" width="24.000000" height="24.000000" fill="white" fill-opacity="0"/>
		</clipPath>
	</defs>
	<g clip-path="url(#clip194_1404)">
		<path id="path" d="M7.32 7.7L7.29 7.7C6.89 7.31 6.89 6.68 7.29 6.29C7.68 5.89 8.31 5.89 8.7 6.29L8.7 6.32L7.32 7.7ZM17.16 14.77L17.19 14.77C17.58 15.17 17.58 15.79 17.19 16.19C16.79 16.58 16.17 16.58 15.77 16.19L15.77 16.16L17.16 14.77Z" fill="#FFFFFF" fill-opacity="0" fill-rule="nonzero"/>
		<path id="path" d="M8 7L16.48 15.48" stroke="#2C555B" stroke-opacity="1.000000" stroke-width="2.000000" stroke-linejoin="round" stroke-linecap="round"/>
		<path id="path" d="M8.7 16.16L8.7 16.19C8.31 16.58 7.68 16.58 7.29 16.19C6.89 15.79 6.89 15.17 7.29 14.77L7.32 14.77L8.7 16.16ZM15.77 6.32L15.77 6.29C16.17 5.89 16.79 5.89 17.19 6.29C17.58 6.68 17.58 7.31 17.19 7.7L17.16 7.7L15.77 6.32Z" fill="#FFFFFF" fill-opacity="0" fill-rule="nonzero"/>
		<path id="path" d="M8 15.48L16.48 7" stroke="#2C555B" stroke-opacity="1.000000" stroke-width="2.000000" stroke-linejoin="round" stroke-linecap="round"/>
	</g>
</svg>
