<svg width="40" height="40" viewBox="0 0 40 40" fill="none" xmlns="http://www.w3.org/2000/svg">
<rect x="1" y="1" width="38" height="38" rx="9" stroke="white" stroke-width="2"/>
<g clip-path="url(#clip0_717_277)">
<path d="M20 24C22.2091 24 24 22.2091 24 20C24 17.7909 22.2091 16 20 16C17.7909 16 16 17.7909 16 20C16 22.2091 17.7909 24 20 24Z" stroke="white" stroke-width="3" stroke-linecap="round" stroke-linejoin="round"/>
<path d="M24 15.9999V20.9999C24 21.7955 24.3161 22.5586 24.8787 23.1212C25.4413 23.6838 26.2044 23.9999 27 23.9999C27.7957 23.9999 28.5587 23.6838 29.1213 23.1212C29.6839 22.5586 30 21.7955 30 20.9999V19.9999C29.9999 17.7429 29.2362 15.5523 27.8333 13.7844C26.4303 12.0165 24.4706 10.7751 22.2726 10.2622C20.0747 9.74924 17.7679 9.99491 15.7274 10.9592C13.6868 11.9236 12.0324 13.5498 11.0333 15.5736C10.0341 17.5974 9.74898 19.8996 10.2242 22.106C10.6994 24.3124 11.907 26.2931 13.6506 27.7261C15.3943 29.1592 17.5714 29.9602 19.8281 29.999C22.0847 30.0378 24.2881 29.3121 26.08 27.9399" stroke="white" stroke-width="3" stroke-linecap="round" stroke-linejoin="round"/>
</g>
<defs>
<clipPath id="clip0_717_277">
<rect width="24" height="24" fill="white" transform="translate(8 8)"/>
</clipPath>
</defs>
</svg>
