<svg width="16" height="16" viewBox="0 0 16 16" fill="none" xmlns="http://www.w3.org/2000/svg">
<path d="M11.3333 8.66667C12.8061 8.66667 14 9.86057 14 11.3333C14 12.8061 12.8061 14 11.3333 14C10.091 14 9.04701 13.1504 8.75081 12.0005L2 12V10.6667L8.75064 10.6668C9.04661 9.5166 10.0907 8.66667 11.3333 8.66667ZM11.3333 10C10.597 10 10 10.597 10 11.3333C10 12.0697 10.597 12.6667 11.3333 12.6667C12.0697 12.6667 12.6667 12.0697 12.6667 11.3333C12.6667 10.597 12.0697 10 11.3333 10ZM4.66667 2C5.90928 2 6.95339 2.84993 7.24936 4.00016L14 4V5.33333L7.24919 5.33384C6.95299 6.48373 5.90904 7.33333 4.66667 7.33333C3.19391 7.33333 2 6.13943 2 4.66667C2 3.19391 3.19391 2 4.66667 2ZM4.66667 3.33333C3.93029 3.33333 3.33333 3.93029 3.33333 4.66667C3.33333 5.40305 3.93029 6 4.66667 6C5.40305 6 6 5.40305 6 4.66667C6 3.93029 5.40305 3.33333 4.66667 3.33333Z" fill="white"/>
</svg>
