<svg width="48.000000" height="48.000000" viewBox="0 0 48 48" fill="none" xmlns="http://www.w3.org/2000/svg" xmlns:xlink="http://www.w3.org/1999/xlink">
	<desc>
			Created with Pixso.
	</desc>
	<defs/>
	<rect id="flower" width="48.000000" height="48.000000" fill="#FFFFFF" fill-opacity="0"/>
	<path id="shape" d="M24 10C24 6.68 26.68 4 30 4L40 4L40 10C40 13.31 37.31 16 34 16L28 16L28 24L38 24C38.57 24 39.11 24.24 39.49 24.67C39.87 25.1 40.05 25.67 39.98 26.24L37.98 42.24C37.85 43.24 37 44 36 44L16 44C14.99 44 14.14 43.24 14.01 42.24L12.01 26.24C11.94 25.67 12.12 25.1 12.5 24.67C12.88 24.24 13.42 24 14 24L24 24L24 10ZM16 8C19.31 8 22 10.68 22 14L22 20L12 20C8.68 20 6 17.31 6 14L6 8L16 8ZM34 12L28 12L28 10C28 8.89 28.89 8 30 8L36 8L36 10C36 11.1 35.1 12 34 12ZM18 14C18 12.89 17.1 12 16 12L10 12L10 14C10 15.1 10.89 16 12 16L18 16L18 14ZM16.26 28L17.76 40L34.23 40L35.73 28L16.26 28Z" fill="#F7A110" fill-opacity="1.000000" fill-rule="evenodd"/>
</svg>
