<svg width="44" height="40" viewBox="0 0 44 40" fill="none" xmlns="http://www.w3.org/2000/svg">
<path fill-rule="evenodd" clip-rule="evenodd" d="M26 14C26 10.3114 26.9222 7.84041 28.2551 6.31701C29.4857 4.91062 31.2565 4.09336 33.5864 4.00753C33.7258 4.1532 33.9132 4.38144 34.1428 4.70942C34.7145 5.52613 35.3503 6.67282 35.9611 7.89443C36.5642 9.10067 37.1109 10.3149 37.5086 11.2327C37.5538 11.3371 37.5971 11.4375 37.6382 11.5334L37.6051 11.5665L34.8944 10.2111C34.3267 9.9273 33.658 9.92976 33.0924 10.2178C32.5268 10.5058 32.1315 11.0451 32.0272 11.6712L31.0272 17.6712C30.9821 17.9418 30.9931 18.2189 31.0597 18.4851L34.0597 30.4851L37.9403 29.5149L35.0412 17.9185L35.5276 14.9999L37.1056 15.7889C37.8755 16.1738 38.8055 16.0229 39.4142 15.4142L41.4142 13.4142C41.9799 12.8485 42.1536 11.999 41.8565 11.2561L41.8557 11.2541L41.8433 11.2234L41.8072 11.1343C41.7759 11.0573 41.7303 10.9458 41.6719 10.8048C41.5551 10.523 41.3868 10.1223 41.1788 9.64229C40.764 8.68506 40.1857 7.39933 39.5388 6.10557C38.8996 4.82718 38.1605 3.47387 37.4197 2.41558C37.0533 1.89215 36.6352 1.36601 36.1774 0.949807C35.7889 0.596646 35.0279 0 34 0C30.5349 0 27.4424 1.17144 25.2448 3.68299C23.423 5.76502 22.3711 8.59084 22.0821 12H13.6568C13.6216 11.9004 13.5838 11.8017 13.5432 11.7039C13.2417 10.9759 12.7998 10.3145 12.2426 9.75736C11.6855 9.20021 11.024 8.75825 10.2961 8.45672C9.56812 8.15519 8.7879 8 7.99997 8C7.21204 8 6.43182 8.15519 5.70387 8.45672C4.97591 8.75825 4.31448 9.20021 3.75733 9.75736C3.20018 10.3145 2.75822 10.9759 2.45669 11.7039C2.15516 12.4319 1.99997 13.2121 1.99997 14V18H5.99997V14C5.99997 13.7374 6.0517 13.4773 6.15221 13.2346C6.25272 12.992 6.40004 12.7715 6.58576 12.5858C6.77147 12.4001 6.99195 12.2528 7.2346 12.1522C7.47725 12.0517 7.73733 12 7.99997 12C8.26261 12 8.52269 12.0517 8.76534 12.1522C9.00799 12.2528 9.22847 12.4001 9.41418 12.5858C9.5999 12.7715 9.74722 12.992 9.84773 13.2346C9.92207 13.4141 9.96973 13.6031 9.98951 13.7957L6.05969 29.5149L9.94026 30.4851L13.5615 16H24C25.1045 16 26 15.1046 26 14ZM33.4024 3.84209C33.4024 3.84209 33.4131 3.84738 33.4351 3.86507C33.4136 3.85212 33.4024 3.84209 33.4024 3.84209Z" fill="#F7A110"/>
<path d="M15.6783 24.8973C17.3898 23.0915 19.6042 22 22 22C24.3957 22 26.6101 23.0915 28.3216 24.8973C30.0227 26.6921 31.1748 29.1243 31.6904 31.7704L27.7643 32.5355C27.3684 30.5038 26.5117 28.8024 25.4185 27.6489C24.3357 26.5066 23.1264 26 22 26C20.8736 26 19.6642 26.5066 18.5815 27.6489C17.4882 28.8024 16.6316 30.5038 16.2356 32.5355L12.3095 31.7704C12.8251 29.1242 13.9772 26.692 15.6783 24.8973Z" fill="#F7A110"/>
<path d="M33.5224 34.2497C36.8411 33.1038 38.8171 31.621 39.6 30.3062L43.0369 32.3526C41.5408 34.8652 38.495 36.7644 34.828 38.0307C31.0893 39.3216 26.5834 40 22 40C17.4165 40 12.9107 39.3216 9.17196 38.0307C5.50487 36.7644 2.45911 34.8652 0.963013 32.3526L4.39987 30.3062C5.18278 31.621 7.15882 33.1038 10.4775 34.2497C13.7246 35.3709 17.7781 36 22 36C26.2218 36 30.2753 35.3709 33.5224 34.2497Z" fill="#F7A110"/>
</svg>
