<svg width="40" height="40" viewBox="0 0 40 40" fill="none" xmlns="http://www.w3.org/2000/svg">
<path fill-rule="evenodd" clip-rule="evenodd" d="M20 0C20.5304 0 21.0391 0.210714 21.4142 0.585786L24.1005 3.27208C24.2703 3.4419 24.4361 3.61429 24.5977 3.78914L31.5149 2.05983C32.5288 1.80637 33.5669 2.37622 33.8973 3.36766L35.4415 8H38C39.1046 8 40 8.89543 40 10V13.8376C40 23.665 32.785 32 23.4538 32H21.8608C21.042 37.6529 16.7952 40 14 40V36C14.7577 36 17.0971 35.2091 17.7989 32H16.5462C7.21498 32 0 23.665 0 13.8376V10C0 8.89543 0.89543 8 2 8H4.55855L6.10266 3.36766C6.43314 2.37622 7.47123 1.80637 8.4851 2.05983L15.4023 3.78914C15.5639 3.61429 15.7297 3.4419 15.8995 3.27208L18.5858 0.585787C18.9609 0.210714 19.4696 0 20 0ZM28.1293 9.41545C27.8436 8.6872 27.5086 7.97384 27.1244 7.28056L30.6883 6.3896L31.3387 8.34099C30.2235 8.58137 29.1496 8.94432 28.1293 9.41545ZM11.8707 9.41545C10.8504 8.94432 9.77647 8.58137 8.66126 8.34099L9.31172 6.3896L12.8756 7.28056C12.4914 7.97384 12.1564 8.6872 11.8707 9.41545ZM10.8212 13.3596C9.18764 12.484 7.3686 12 5.45381 12H4V13.8376C4 21.2938 9.01558 27.1204 15.1294 27.909C11.5045 23.8081 10.0702 18.4507 10.8212 13.3596ZM24.8706 27.909C28.4955 23.8081 29.9298 18.4507 29.1788 13.3596C30.8124 12.484 32.6314 12 34.5462 12H36V13.8376C36 21.2938 30.9844 27.1204 24.8706 27.909ZM20 27.1716L18.7279 25.8995C15.1825 22.3541 13.9339 17.3799 14.9905 12.8226C15.5614 10.3603 16.8054 8.02307 18.7279 6.10051L20 4.82843L21.2721 6.1005C23.1946 8.02307 24.4386 10.3603 25.0095 12.8226C26.0661 17.3799 24.8175 22.3541 21.2721 25.8995L20 27.1716Z" fill="#F7A110"/>
</svg>
