<svg width="48.000000" height="48.000000" viewBox="0 0 48 48" fill="none" xmlns="http://www.w3.org/2000/svg" xmlns:xlink="http://www.w3.org/1999/xlink">
	<desc>
			Created with Pixso.
	</desc>
	<defs/>
	<rect id="kids" width="48.000000" height="48.000000" fill="#FFFFFF" fill-opacity="0"/>
	<path id="shape" d="M28 18C28 14.31 28.92 11.84 30.25 10.31C31.48 8.91 33.25 8.09 35.58 8C35.72 8.15 35.91 8.38 36.14 8.7C36.71 9.52 37.35 10.67 37.96 11.89C38.56 13.1 39.11 14.31 39.5 15.23C39.55 15.33 39.59 15.43 39.63 15.53L39.6 15.56L36.89 14.21C36.32 13.92 35.65 13.92 35.09 14.21C34.52 14.5 34.13 15.04 34.02 15.67L33.02 21.67C32.98 21.94 32.99 22.21 33.05 22.48L36.05 34.48L39.94 33.51L37.04 21.91L37.52 18.99L39.1 19.78C39.87 20.17 40.8 20.02 41.41 19.41L43.41 17.41C43.97 16.84 44.15 15.99 43.85 15.25L43.85 15.25L43.84 15.22L43.8 15.13C43.77 15.05 43.73 14.94 43.67 14.8C43.55 14.52 43.38 14.12 43.17 13.64C42.76 12.68 42.18 11.39 41.53 10.1C40.89 8.82 40.16 7.47 39.41 6.41C39.05 5.89 38.63 5.36 38.17 4.94C37.78 4.59 37.02 4 36 4C32.53 4 29.44 5.17 27.24 7.68C25.42 9.76 24.37 12.59 24.08 16L15.65 16C15.62 15.9 15.58 15.8 15.54 15.7C15.24 14.97 14.79 14.31 14.24 13.75C13.68 13.2 13.02 12.75 12.29 12.45C11.56 12.15 10.78 12 10 12C9.21 12 8.43 12.15 7.7 12.45C6.97 12.75 6.31 13.2 5.75 13.75C5.2 14.31 4.75 14.97 4.45 15.7C4.15 16.43 4 17.21 4 18L4 22L8 22L8 18C8 17.73 8.05 17.47 8.15 17.23C8.25 16.99 8.4 16.77 8.58 16.58C8.77 16.4 8.99 16.25 9.23 16.15C9.47 16.05 9.73 16 10 16C10.26 16 10.52 16.05 10.76 16.15C11 16.25 11.22 16.4 11.41 16.58C11.59 16.77 11.74 16.99 11.84 17.23C11.92 17.41 11.96 17.6 11.98 17.79L8.05 33.51L11.94 34.48L15.56 20L26 20C27.1 20 28 19.1 28 18ZM35.4 7.84C35.4 7.84 35.41 7.84 35.43 7.86C35.41 7.85 35.4 7.84 35.4 7.84ZM17.67 28.89C19.38 27.09 21.6 26 24 26C26.39 26 28.61 27.09 30.32 28.89C32.02 30.69 33.17 33.12 33.69 35.77L29.76 36.53C29.36 34.5 28.51 32.8 27.41 31.64C26.33 30.5 25.12 30 24 30C22.87 30 21.66 30.5 20.58 31.64C19.48 32.8 18.63 34.5 18.23 36.53L14.3 35.77C14.82 33.12 15.97 30.69 17.67 28.89ZM41.6 34.3C40.81 35.62 38.84 37.1 35.52 38.24C32.27 39.37 28.22 40 24 40C19.77 40 15.72 39.37 12.47 38.24C9.15 37.1 7.18 35.62 6.39 34.3L2.96 36.35C4.45 38.86 7.5 40.76 11.17 42.03C14.91 43.32 19.41 44 24 44C28.58 44 33.08 43.32 36.82 42.03C40.49 40.76 43.54 38.86 45.03 36.35L41.6 34.3Z" fill="#F7A110" fill-opacity="1.000000" fill-rule="evenodd"/>
</svg>
