<svg width="34" height="40" viewBox="0 0 34 40" fill="none" xmlns="http://www.w3.org/2000/svg">
<path fill-rule="evenodd" clip-rule="evenodd" d="M24 0C20.6863 0 18 2.68629 18 6V20H8.00001C7.42635 20 6.88031 20.2463 6.50065 20.6764C6.121 21.1065 5.9443 21.6788 6.01546 22.2481L8.01546 38.2481C8.14056 39.2489 8.99137 40 10 40H30C31.0087 40 31.8595 39.2489 31.9846 38.2481L33.9846 22.2481C34.0557 21.6788 33.879 21.1065 33.4994 20.6764C33.1197 20.2463 32.5737 20 32 20H22V12H28C31.3137 12 34 9.31371 34 6V0H24ZM22 8H28C29.1046 8 30 7.10457 30 6V4H24C22.8954 4 22 4.89543 22 6V8ZM11.7656 36L10.2656 24H29.7344L28.2344 36H11.7656Z" fill="#F7A110"/>
<path fill-rule="evenodd" clip-rule="evenodd" d="M16 10C16 6.68629 13.3137 4 10 4H0V10C0 13.3137 2.68629 16 6 16H16V10ZM10 8C11.1046 8 12 8.89543 12 10V12H6C4.89543 12 4 11.1046 4 10V8H10Z" fill="#F7A110"/>
</svg>
