<svg width="40" height="38" viewBox="0 0 40 38" fill="none" xmlns="http://www.w3.org/2000/svg">
<path d="M18 22.0001V30.0001H22V22.0001H18Z" fill="#F7A110"/>
<path d="M26 30.0001V22.0001H30V30.0001H26Z" fill="#F7A110"/>
<path d="M10 22.0001V30.0001H14V22.0001H10Z" fill="#F7A110"/>
<path fill-rule="evenodd" clip-rule="evenodd" d="M6.82848 14.0001L17.4142 3.41436L14.5858 0.585938L0.594824 14.5769C0.545235 14.6259 0.497987 14.6777 0.453333 14.7321C0.0734555 15.1955 -0.0786542 15.8048 0.0388558 16.3924L4.03886 36.3924C4.22583 37.3272 5.04666 38.0001 6.00002 38.0001H34C34.9534 38.0001 35.7742 37.3272 35.9612 36.3924L39.9612 16.3924C40.0787 15.8048 39.9266 15.1955 39.5467 14.7321C39.5027 14.6785 39.4563 14.6275 39.4075 14.5792L25.4142 0.585938L22.5858 3.41436L33.1716 14.0001H6.82848ZM7.63963 34.0001L4.43963 18.0001H35.5604L32.3604 34.0001H7.63963Z" fill="#F7A110"/>
</svg>
