<svg width="40" height="40" viewBox="0 0 40 40" fill="none" xmlns="http://www.w3.org/2000/svg">
<path fill-rule="evenodd" clip-rule="evenodd" d="M4.16829 17.671C8.95434 17.1464 13.8013 17.5167 18.4604 18.7679L20.8128 16.5723C21.2477 16.1665 21.6608 15.7405 22.0512 15.2964C17.8684 12.5405 12.6957 11.6376 7.78365 12.8656L5.39168 13.4636C4.80121 14.7813 4.38377 16.1934 4.16829 17.671ZM2.55353 10.2141C0.927432 13.107 0 16.4452 0 20C0 31.0457 8.9543 40 20 40C31.0457 40 40 31.0457 40 20C40 17.5344 39.5539 15.1731 38.7379 12.9922L38.7698 12.9315L38.7014 12.8955C35.836 5.35709 28.5436 0 20 0C12.5878 0 6.11729 4.03223 2.66246 10.0228L2.51493 10.0597L2.55353 10.2141ZM8.78694 8.58653C14.2175 7.7462 19.7701 8.97103 24.3423 12.016C25.0661 10.6859 25.6227 9.26298 25.9938 7.77886L26.5851 5.41361C24.5767 4.50551 22.3474 4 20 4C15.6327 4 11.6741 5.74978 8.78694 8.58653ZM30.1532 7.63361L29.8743 8.74901C28.8447 12.8674 26.6455 16.6 23.5421 19.4966L21.5169 21.3867C22.3271 22.7782 23.2259 24.1163 24.2052 25.3922L27.6724 22.5029C29.4831 20.994 30.9798 19.1441 32.0776 17.0584L34.3053 12.8257C33.2955 10.8161 31.8747 9.04865 30.1532 7.63361ZM35.9163 18.3532L35.6173 18.9214C34.2756 21.4706 32.4462 23.7316 30.2331 25.5758L26.8037 28.4336C27.9979 29.6918 29.278 30.8692 30.6339 31.9552C33.9262 29.0246 36 24.7545 36 20C36 19.444 35.9716 18.8946 35.9163 18.3532ZM27.1888 34.298C23.4024 31.0805 20.1933 27.201 17.7539 22.8642L17.6589 22.6953C15.9549 22.2248 14.222 21.8861 12.4756 21.6799L12.513 21.9797C13.0752 26.4768 15.313 30.5963 18.7796 33.5155L21.6323 35.9178C23.6136 35.717 25.4881 35.1547 27.1888 34.298ZM14.5748 35.0568C11.2668 31.6431 9.13847 27.2323 8.54392 22.4759L8.41443 21.44C6.97143 21.4392 5.52716 21.5282 4.09003 21.7074C4.74575 27.8888 8.92152 33.0195 14.5748 35.0568Z" fill="#F7A110"/>
</svg>
