<svg width="40" height="40" viewBox="0 0 40 40" fill="none" xmlns="http://www.w3.org/2000/svg">
<rect x="1" y="1" width="38" height="38" rx="9" stroke="white" stroke-width="2"/>
<path d="M8.7036 20.8808C10.8078 19.7217 13.1566 18.7544 15.3513 17.7821C19.1269 16.1895 22.9176 14.6246 26.7465 13.1676C27.4915 12.9194 28.83 12.6766 28.9612 13.7806C28.8894 15.3433 28.5937 16.8968 28.3909 18.4504C27.8762 21.8668 27.2813 25.2715 26.7012 28.6766C26.5013 29.8109 25.0804 30.398 24.1713 29.6722C21.9864 28.1963 19.7847 26.7349 17.6277 25.2248C16.9211 24.5069 17.5763 23.4758 18.2074 22.9631C20.0069 21.1897 21.9154 19.6829 23.6209 17.8178C24.0809 16.7069 22.7216 17.6432 22.2733 17.93C19.8097 19.6277 17.4064 21.4291 14.809 22.9211C13.4822 23.6515 11.9359 23.0273 10.6097 22.6198C9.42064 22.1275 7.67823 21.6315 8.70348 20.8808L8.7036 20.8808Z" fill="white"/>
</svg>
