<svg width="40" height="40" viewBox="0 0 40 40" fill="none" xmlns="http://www.w3.org/2000/svg">
<g clip-path="url(#clip0_717_270)">
<path d="M1.34255 8.79943C1.00212 11.3315 1 14.6462 1 19.2V20.8C1 25.3538 1.00212 28.6685 1.34255 31.2006C1.67912 33.7039 2.32976 35.292 3.51888 36.4811C4.708 37.6702 6.2961 38.3209 8.79943 38.6574C11.3315 38.9979 14.6462 39 19.2 39H20.8C25.3538 39 28.6685 38.9979 31.2006 38.6574C33.7039 38.3209 35.292 37.6703 36.4811 36.4812C36.4811 36.4811 36.4811 36.4811 36.4812 36.4811M1.34255 8.79943L37.1882 2.81177C40 5.62355 40 10.149 40 19.2V20.8C40 29.851 40 34.3764 37.1882 37.1882L36.4812 36.4811M1.34255 8.79943C1.67912 6.29611 2.32976 4.708 3.51888 3.51888C4.708 2.32976 6.29611 1.67912 8.79943 1.34255C11.3315 1.00212 14.6462 1 19.2 1H20.8C25.3538 1 28.6685 1.00212 31.2006 1.34255C33.7039 1.67912 35.292 2.32976 36.4811 3.51889C37.6702 4.708 38.3209 6.2961 38.6574 8.79943C38.9979 11.3315 39 14.6462 39 19.2V20.8C39 25.3538 38.9979 28.6685 38.6574 31.2006C38.3209 33.7039 37.6703 35.292 36.4812 36.4811M1.34255 8.79943L36.4812 36.4811" stroke="white" stroke-width="2"/>
<path d="M21.2147 28.8C11.9215 28.8 6.62089 22.4937 6.40002 12H11.0551C11.208 19.7021 14.6398 22.9646 17.3581 23.6372V12H21.7415V18.6426C24.4258 18.3568 27.2457 15.3297 28.1971 12H32.5805C31.8499 16.1033 28.7919 19.1303 26.6172 20.3748C28.7919 21.3838 32.2748 24.024 33.6 28.8H28.7749C27.7385 25.6048 25.1564 23.1327 21.7415 22.7964V28.8H21.2147Z" fill="white"/>
</g>
<defs>
<clipPath id="clip0_717_270">
<rect width="40" height="40" fill="white"/>
</clipPath>
</defs>
</svg>
