<svg width="48.000000" height="48.000000" viewBox="0 0 48 48" fill="none" xmlns="http://www.w3.org/2000/svg" xmlns:xlink="http://www.w3.org/1999/xlink">
	<desc>
			Created with Pixso.
	</desc>
	<defs/>
	<rect id="volleyball" width="48.000000" height="48.000000" fill="#FFFFFF" fill-opacity="0"/>
	<path id="shape" d="M8.16 21.67C12.95 21.14 17.8 21.51 22.46 22.76L24.81 20.57C25.24 20.16 25.66 19.74 26.05 19.29C21.86 16.54 16.69 15.63 11.78 16.86L9.39 17.46C8.8 18.78 8.38 20.19 8.16 21.67ZM6.55 14.21C4.92 17.1 4 20.44 4 24C4 35.04 12.95 44 24 44C35.04 44 44 35.04 44 24C44 21.53 43.55 19.17 42.73 16.99L42.76 16.93L42.7 16.89C39.83 9.35 32.54 4 24 4C16.58 4 10.11 8.03 6.66 14.02L6.51 14.05L6.55 14.21ZM12.78 12.58C18.21 11.74 23.77 12.97 28.34 16.01C29.06 14.68 29.62 13.26 29.99 11.77L30.58 9.41C28.57 8.5 26.34 8 24 8C19.63 8 15.67 9.74 12.78 12.58ZM34.15 11.63L33.87 12.74C32.84 16.86 30.64 20.6 27.54 23.49L25.51 25.38C26.32 26.77 27.22 28.11 28.2 29.39L31.67 26.5C33.48 24.99 34.97 23.14 36.07 21.05L38.3 16.82C37.29 14.81 35.87 13.04 34.15 11.63ZM39.91 22.35L39.61 22.92C38.27 25.47 36.44 27.73 34.23 29.57L30.8 32.43C31.99 33.69 33.27 34.86 34.63 35.95C37.92 33.02 40 28.75 40 24C40 23.44 39.97 22.89 39.91 22.35ZM31.18 38.29C27.4 35.08 24.19 31.2 21.75 26.86L21.65 26.69C19.95 26.22 18.22 25.88 16.47 25.67L16.51 25.97C17.07 30.47 19.31 34.59 22.77 37.51L25.63 39.91C27.61 39.71 29.48 39.15 31.18 38.29ZM18.57 39.05C15.26 35.64 13.13 31.23 12.54 26.47L12.41 25.43C10.97 25.43 9.52 25.52 8.09 25.7C8.74 31.88 12.92 37.01 18.57 39.05Z" fill="#F7A110" fill-opacity="1.000000" fill-rule="evenodd"/>
</svg>
