<svg width="48.000000" height="48.000000" viewBox="0 0 48 48" fill="none" xmlns="http://www.w3.org/2000/svg" xmlns:xlink="http://www.w3.org/1999/xlink">
	<desc>
			Created with Pixso.
	</desc>
	<defs/>
	<rect id="zoo-store-paw" width="48.000000" height="48.000000" fill="#FFFFFF" fill-opacity="0"/>
	<path id="shape" d="M11 12C11 8.68 13.68 6 17 6C20.31 6 23 8.68 23 12C23 15.31 20.31 18 17 18C13.68 18 11 15.31 11 12ZM25 12C25 8.68 27.68 6 31 6C34.31 6 37 8.68 37 12C37 15.31 34.31 18 31 18C27.68 18 25 15.31 25 12ZM17 10C15.89 10 15 10.89 15 12C15 13.1 15.89 14 17 14C18.1 14 19 13.1 19 12C19 10.89 18.1 10 17 10ZM31 10C29.89 10 29 10.89 29 12C29 13.1 29.89 14 31 14C32.1 14 33 13.1 33 12C33 10.89 32.1 10 31 10ZM7 16C3.68 16 1 18.68 1 22C1 25.31 3.68 28 7 28C10.31 28 13 25.31 13 22C13 18.68 10.31 16 7 16ZM35 22C35 18.68 37.68 16 41 16C44.31 16 47 18.68 47 22C47 25.31 44.31 28 41 28C37.68 28 35 25.31 35 22ZM5 22C5 20.89 5.89 20 7 20C8.1 20 9 20.89 9 22C9 23.1 8.1 24 7 24C5.89 24 5 23.1 5 22ZM23.99 20C18.88 20 15.35 23.81 13.46 27.6C12.48 29.54 11.85 31.63 11.61 33.55C11.37 35.4 11.45 37.37 12.21 38.89C12.9 40.28 13.94 41.25 15.33 41.62C16.59 41.95 17.84 41.69 18.79 41.42C19.3 41.27 19.8 41.1 20.27 40.94L20.51 40.85C20.9 40.71 21.27 40.58 21.64 40.46C22.55 40.17 23.31 40 23.99 40C24.68 40 25.44 40.17 26.35 40.46C26.72 40.58 27.09 40.71 27.48 40.85L27.72 40.94C28.19 41.1 28.69 41.27 29.2 41.42C30.15 41.69 31.4 41.95 32.66 41.62C34.05 41.25 35.09 40.28 35.78 38.89C36.54 37.37 36.62 35.4 36.38 33.55C36.14 31.63 35.5 29.54 34.53 27.6C32.64 23.81 29.11 20 23.99 20ZM41 20C39.89 20 39 20.89 39 22C39 23.1 39.89 24 41 24C42.1 24 43 23.1 43 22C43 20.89 42.1 20 41 20ZM15.78 37.1C15.54 36.62 15.37 35.59 15.57 34.06C15.76 32.61 16.25 30.95 17.03 29.39C18.64 26.18 21.11 24 23.99 24C26.88 24 29.35 26.18 30.96 29.39C31.73 30.95 32.23 32.61 32.42 34.06C32.62 35.59 32.45 36.62 32.21 37.1C31.92 37.68 31.71 37.73 31.65 37.75L31.65 37.75C31.47 37.79 31.09 37.8 30.29 37.57C29.92 37.47 29.52 37.33 29.06 37.16L28.83 37.08C28.44 36.95 28.01 36.79 27.58 36.65C26.55 36.32 25.31 36 23.99 36C22.68 36 21.44 36.32 20.41 36.65C19.98 36.79 19.55 36.95 19.16 37.08L18.93 37.16C18.47 37.33 18.07 37.47 17.7 37.57C16.9 37.8 16.52 37.79 16.34 37.75L16.34 37.75C16.28 37.73 16.07 37.68 15.78 37.1Z" fill="#F7A110" fill-opacity="1.000000" fill-rule="evenodd"/>
</svg>
