<svg width="18" height="18" viewBox="0 0 18 18" fill="none" xmlns="http://www.w3.org/2000/svg">
<path d="M6 12C6 11.4477 6.44772 11 7 11H11C11.5523 11 12 11.4477 12 12V16H16V9.41421L9 2.41421L2 9.41421V16H6V12ZM8 13V17C8 17.5523 7.55228 18 7 18H1C0.447715 18 0 17.5523 0 17V9C0 8.73478 0.105357 8.48043 0.292893 8.29289L8.29289 0.292893C8.68342 -0.0976311 9.31658 -0.0976311 9.70711 0.292893L17.7071 8.29289C17.8946 8.48043 18 8.73478 18 9V17C18 17.5523 17.5523 18 17 18H11C10.4477 18 10 17.5523 10 17V13H8Z" fill="#76A05E"/>
</svg>
